G04*
G04 #@! TF.GenerationSoftware,Altium Limited,Altium Designer,22.7.1 (60)*
G04*
G04 Layer_Color=16711935*
%FSLAX44Y44*%
%MOMM*%
G71*
G04*
G04 #@! TF.SameCoordinates,3B3FF853-3F63-4CB7-AB95-564DBE59FAD3*
G04*
G04*
G04 #@! TF.FilePolarity,Negative*
G04*
G01*
G75*
%ADD52R,2.2000X2.2000*%
%ADD53C,2.2000*%
%ADD54R,2.2000X1.8000*%
%ADD55O,2.2000X1.8000*%
%ADD56C,2.1800*%
%ADD57R,2.1800X2.1800*%
%ADD58C,1.7000*%
%ADD59R,1.7000X1.7000*%
%ADD60C,1.8000*%
%ADD61R,1.8000X2.2000*%
%ADD62O,1.8000X2.2000*%
%ADD63C,0.8000*%
D52*
X895052Y822500D02*
D03*
X792552D02*
D03*
X690052D02*
D03*
X587552D02*
D03*
X480052D02*
D03*
X375052D02*
D03*
X272552D02*
D03*
X170052D02*
D03*
X960000Y60000D02*
D03*
X860000D02*
D03*
X757500D02*
D03*
X655000D02*
D03*
X552500D02*
D03*
X450000D02*
D03*
X347500D02*
D03*
X245000D02*
D03*
X142500D02*
D03*
X37500D02*
D03*
D53*
X860000Y822500D02*
D03*
X757500D02*
D03*
X655000D02*
D03*
X552500D02*
D03*
X445000D02*
D03*
X340000D02*
D03*
X237500D02*
D03*
X135000D02*
D03*
X995052Y60000D02*
D03*
X895052D02*
D03*
X792552D02*
D03*
X690052D02*
D03*
X587552D02*
D03*
X485052D02*
D03*
X382552D02*
D03*
X280052D02*
D03*
X177552D02*
D03*
X72552D02*
D03*
D54*
X40000Y575400D02*
D03*
X1000000Y550000D02*
D03*
X40000Y250000D02*
D03*
D55*
Y550000D02*
D03*
X1000000Y575400D02*
D03*
X40000Y275400D02*
D03*
D56*
X101000Y132500D02*
D03*
X75500D02*
D03*
D57*
X50000D02*
D03*
D58*
X1000000Y275400D02*
D03*
Y250000D02*
D03*
Y300800D02*
D03*
D59*
Y326200D02*
D03*
D60*
X757000Y587500D02*
D03*
X708000D02*
D03*
D61*
X710000Y419600D02*
D03*
D62*
X735400D02*
D03*
X760800Y419600D02*
D03*
X710000Y445000D02*
D03*
X735400D02*
D03*
X760800D02*
D03*
D63*
X803619Y138500D02*
D03*
X302000Y166000D02*
D03*
X241000Y163000D02*
D03*
X333000Y133000D02*
D03*
X382000Y134000D02*
D03*
X720000Y102000D02*
D03*
X285000Y142500D02*
D03*
X671000Y482000D02*
D03*
X916000Y426000D02*
D03*
X911000Y352000D02*
D03*
X710000Y337000D02*
D03*
X89000Y222000D02*
D03*
X477500Y402500D02*
D03*
X110000Y507500D02*
D03*
Y542500D02*
D03*
X595000Y359000D02*
D03*
X890000Y367500D02*
D03*
X100000Y402500D02*
D03*
X155000Y172500D02*
D03*
X177500D02*
D03*
Y100000D02*
D03*
X900000Y147500D02*
D03*
X687500D02*
D03*
X480000D02*
D03*
X770000Y677500D02*
D03*
X579292Y679555D02*
D03*
X360000Y680000D02*
D03*
X155000Y677500D02*
D03*
X167500Y127500D02*
D03*
X602500Y337500D02*
D03*
X550000Y552500D02*
D03*
X617500Y600000D02*
D03*
X560000Y587500D02*
D03*
X375000Y555000D02*
D03*
X427500Y540000D02*
D03*
X490000Y515000D02*
D03*
X462500Y552500D02*
D03*
X222500Y330000D02*
D03*
X352500Y325000D02*
D03*
X692500Y505000D02*
D03*
X570000Y492500D02*
D03*
X590000Y502500D02*
D03*
X587500Y512500D02*
D03*
X585000Y495000D02*
D03*
X725977Y522332D02*
D03*
X570000Y355000D02*
D03*
X555000Y360000D02*
D03*
X564787Y338893D02*
D03*
X517500Y339500D02*
D03*
X582500Y347500D02*
D03*
X542500Y339500D02*
D03*
X497500Y338000D02*
D03*
X592500Y470000D02*
D03*
X582500Y475000D02*
D03*
X575000Y482500D02*
D03*
X925000Y217500D02*
D03*
X596879Y460000D02*
D03*
X895000Y222500D02*
D03*
X712500D02*
D03*
X685082Y223470D02*
D03*
X525000Y440000D02*
D03*
X515000Y430000D02*
D03*
X502500Y422500D02*
D03*
X490000Y417500D02*
D03*
X510000Y215000D02*
D03*
X490000Y220000D02*
D03*
X312500Y207500D02*
D03*
X297500Y215000D02*
D03*
X477500Y560000D02*
D03*
X566500Y553074D02*
D03*
X645000Y462500D02*
D03*
X500000Y560000D02*
D03*
X845000Y662500D02*
D03*
X830000D02*
D03*
X642500D02*
D03*
X518447Y564053D02*
D03*
X627500Y662500D02*
D03*
X420000D02*
D03*
X405000Y660000D02*
D03*
X215000Y652500D02*
D03*
X195000Y645000D02*
D03*
X127500Y200000D02*
D03*
X212500Y262500D02*
D03*
X205000Y182500D02*
D03*
X185000Y265000D02*
D03*
Y185000D02*
D03*
X167500Y265000D02*
D03*
Y182500D02*
D03*
M02*
