G04*
G04 #@! TF.GenerationSoftware,Altium Limited,Altium Designer,22.7.1 (60)*
G04*
G04 Layer_Color=255*
%FSLAX44Y44*%
%MOMM*%
G71*
G04*
G04 #@! TF.SameCoordinates,3B3FF853-3F63-4CB7-AB95-564DBE59FAD3*
G04*
G04*
G04 #@! TF.FilePolarity,Positive*
G04*
G01*
G75*
%ADD18R,1.3000X0.7000*%
%ADD19R,0.7000X1.3000*%
G04:AMPARAMS|DCode=20|XSize=1.56mm|YSize=0.25mm|CornerRadius=0.0313mm|HoleSize=0mm|Usage=FLASHONLY|Rotation=0.000|XOffset=0mm|YOffset=0mm|HoleType=Round|Shape=RoundedRectangle|*
%AMROUNDEDRECTD20*
21,1,1.5600,0.1875,0,0,0.0*
21,1,1.4975,0.2500,0,0,0.0*
1,1,0.0625,0.7488,-0.0938*
1,1,0.0625,-0.7488,-0.0938*
1,1,0.0625,-0.7488,0.0938*
1,1,0.0625,0.7488,0.0938*
%
%ADD20ROUNDEDRECTD20*%
G04:AMPARAMS|DCode=21|XSize=1.56mm|YSize=0.25mm|CornerRadius=0.0313mm|HoleSize=0mm|Usage=FLASHONLY|Rotation=270.000|XOffset=0mm|YOffset=0mm|HoleType=Round|Shape=RoundedRectangle|*
%AMROUNDEDRECTD21*
21,1,1.5600,0.1875,0,0,270.0*
21,1,1.4975,0.2500,0,0,270.0*
1,1,0.0625,-0.0938,-0.7488*
1,1,0.0625,-0.0938,0.7488*
1,1,0.0625,0.0938,0.7488*
1,1,0.0625,0.0938,-0.7488*
%
%ADD21ROUNDEDRECTD21*%
%ADD22R,1.3000X0.9000*%
G04:AMPARAMS|DCode=23|XSize=1.97mm|YSize=0.6mm|CornerRadius=0.075mm|HoleSize=0mm|Usage=FLASHONLY|Rotation=180.000|XOffset=0mm|YOffset=0mm|HoleType=Round|Shape=RoundedRectangle|*
%AMROUNDEDRECTD23*
21,1,1.9700,0.4500,0,0,180.0*
21,1,1.8200,0.6000,0,0,180.0*
1,1,0.1500,-0.9100,0.2250*
1,1,0.1500,0.9100,0.2250*
1,1,0.1500,0.9100,-0.2250*
1,1,0.1500,-0.9100,-0.2250*
%
%ADD23ROUNDEDRECTD23*%
%ADD24R,1.2000X1.2000*%
%ADD25R,0.6000X1.4000*%
%ADD26R,0.9000X1.3000*%
%ADD27R,1.7600X0.8800*%
%ADD28R,1.7600X3.1400*%
%ADD29R,1.6000X3.2000*%
G04:AMPARAMS|DCode=30|XSize=1.97mm|YSize=0.6mm|CornerRadius=0.075mm|HoleSize=0mm|Usage=FLASHONLY|Rotation=270.000|XOffset=0mm|YOffset=0mm|HoleType=Round|Shape=RoundedRectangle|*
%AMROUNDEDRECTD30*
21,1,1.9700,0.4500,0,0,270.0*
21,1,1.8200,0.6000,0,0,270.0*
1,1,0.1500,-0.2250,-0.9100*
1,1,0.1500,-0.2250,0.9100*
1,1,0.1500,0.2250,0.9100*
1,1,0.1500,0.2250,-0.9100*
%
%ADD30ROUNDEDRECTD30*%
G04:AMPARAMS|DCode=31|XSize=1.22mm|YSize=0.6mm|CornerRadius=0.15mm|HoleSize=0mm|Usage=FLASHONLY|Rotation=0.000|XOffset=0mm|YOffset=0mm|HoleType=Round|Shape=RoundedRectangle|*
%AMROUNDEDRECTD31*
21,1,1.2200,0.3000,0,0,0.0*
21,1,0.9200,0.6000,0,0,0.0*
1,1,0.3000,0.4600,-0.1500*
1,1,0.3000,-0.4600,-0.1500*
1,1,0.3000,-0.4600,0.1500*
1,1,0.3000,0.4600,0.1500*
%
%ADD31ROUNDEDRECTD31*%
%ADD32R,3.6000X2.6500*%
%ADD33R,1.1700X1.1800*%
%ADD34R,1.4000X1.6000*%
D18*
X932000Y127500D02*
D03*
Y108500D02*
D03*
X903000Y129500D02*
D03*
Y110500D02*
D03*
X796000Y127500D02*
D03*
Y108500D02*
D03*
X688000Y127500D02*
D03*
Y108500D02*
D03*
X516000Y124500D02*
D03*
Y105500D02*
D03*
X496000Y125500D02*
D03*
Y106500D02*
D03*
X403000Y129500D02*
D03*
Y110500D02*
D03*
X240000Y129500D02*
D03*
Y110500D02*
D03*
X941000Y754500D02*
D03*
Y773500D02*
D03*
X749000Y752500D02*
D03*
Y771500D02*
D03*
X722000Y752500D02*
D03*
Y771500D02*
D03*
X110000Y749500D02*
D03*
Y768500D02*
D03*
X293000Y752500D02*
D03*
Y771500D02*
D03*
X315000Y752500D02*
D03*
Y771500D02*
D03*
X508000Y751500D02*
D03*
Y770500D02*
D03*
X531000Y751500D02*
D03*
Y770500D02*
D03*
X565000Y305500D02*
D03*
Y324500D02*
D03*
X542500D02*
D03*
Y305500D02*
D03*
X520000D02*
D03*
Y324500D02*
D03*
X497500Y325000D02*
D03*
Y306000D02*
D03*
X522500Y596500D02*
D03*
Y577500D02*
D03*
X500000Y577000D02*
D03*
Y596000D02*
D03*
X477500D02*
D03*
Y577000D02*
D03*
X942000Y417500D02*
D03*
Y398500D02*
D03*
X142500Y139500D02*
D03*
Y120500D02*
D03*
Y167500D02*
D03*
Y186500D02*
D03*
X212500Y247000D02*
D03*
Y228000D02*
D03*
X190000Y247000D02*
D03*
Y228000D02*
D03*
X167500Y247000D02*
D03*
Y228000D02*
D03*
D19*
X971500Y117000D02*
D03*
X952500D02*
D03*
X423000Y115000D02*
D03*
X442000D02*
D03*
X259500D02*
D03*
X278500D02*
D03*
X787000Y757500D02*
D03*
X768000D02*
D03*
X683500D02*
D03*
X702500D02*
D03*
X865500Y430000D02*
D03*
X884500D02*
D03*
X395500Y417500D02*
D03*
X414500D02*
D03*
Y395000D02*
D03*
X395500D02*
D03*
X395500Y372500D02*
D03*
X414500D02*
D03*
Y350000D02*
D03*
X395500D02*
D03*
X414500Y462500D02*
D03*
X395500D02*
D03*
X395500Y440000D02*
D03*
X414500D02*
D03*
X395500Y485000D02*
D03*
X414500D02*
D03*
Y507500D02*
D03*
X395500D02*
D03*
X412000Y532500D02*
D03*
X393000D02*
D03*
X737000Y550000D02*
D03*
X718000D02*
D03*
X677000Y447500D02*
D03*
X658000D02*
D03*
X658000Y422500D02*
D03*
X677000D02*
D03*
X158000Y427500D02*
D03*
X177000D02*
D03*
X149000Y452500D02*
D03*
X130000D02*
D03*
X95000D02*
D03*
X114000D02*
D03*
X187000Y112500D02*
D03*
X168000D02*
D03*
X882500Y121000D02*
D03*
X863500D02*
D03*
X719500Y119000D02*
D03*
X738500D02*
D03*
X668500Y118000D02*
D03*
X649500D02*
D03*
X539500Y116000D02*
D03*
X558500D02*
D03*
X476500Y115000D02*
D03*
X457500D02*
D03*
X986500Y117000D02*
D03*
X1005500D02*
D03*
X847500Y120000D02*
D03*
X828500D02*
D03*
X754500Y119000D02*
D03*
X773500D02*
D03*
X633500Y117000D02*
D03*
X614500D02*
D03*
X328000Y115000D02*
D03*
X347000D02*
D03*
X310500D02*
D03*
X291500D02*
D03*
X573500Y116000D02*
D03*
X592500D02*
D03*
X365500Y115000D02*
D03*
X384500D02*
D03*
X489500Y757000D02*
D03*
X470500D02*
D03*
X335500Y757500D02*
D03*
X354500D02*
D03*
X274500Y757000D02*
D03*
X255500D02*
D03*
X133000Y757500D02*
D03*
X152000D02*
D03*
X919500D02*
D03*
X900500D02*
D03*
X449500D02*
D03*
X430500D02*
D03*
X380500D02*
D03*
X399500D02*
D03*
X237500D02*
D03*
X218500D02*
D03*
X178000D02*
D03*
X197000D02*
D03*
X550500D02*
D03*
X569500D02*
D03*
X874500D02*
D03*
X855500D02*
D03*
X810500D02*
D03*
X829500D02*
D03*
X664500D02*
D03*
X645500D02*
D03*
X598000D02*
D03*
X617000D02*
D03*
D20*
X458200Y515000D02*
D03*
Y510000D02*
D03*
Y505000D02*
D03*
Y500000D02*
D03*
X458200Y495000D02*
D03*
Y490000D02*
D03*
X458200Y485000D02*
D03*
Y480000D02*
D03*
Y475000D02*
D03*
Y470000D02*
D03*
Y465000D02*
D03*
X458200Y460000D02*
D03*
Y455000D02*
D03*
Y450000D02*
D03*
X458200Y445000D02*
D03*
Y440000D02*
D03*
Y435000D02*
D03*
Y430000D02*
D03*
Y425000D02*
D03*
X458200Y420000D02*
D03*
Y415000D02*
D03*
X458200Y410000D02*
D03*
Y405000D02*
D03*
Y400000D02*
D03*
Y395000D02*
D03*
X611800D02*
D03*
Y400000D02*
D03*
Y405000D02*
D03*
Y410000D02*
D03*
X611800Y415000D02*
D03*
Y420000D02*
D03*
X611800Y425000D02*
D03*
Y430000D02*
D03*
Y435000D02*
D03*
Y440000D02*
D03*
Y445000D02*
D03*
X611800Y450000D02*
D03*
Y455000D02*
D03*
Y460000D02*
D03*
X611800Y465000D02*
D03*
Y470000D02*
D03*
Y475000D02*
D03*
Y480000D02*
D03*
Y485000D02*
D03*
X611800Y490000D02*
D03*
Y495000D02*
D03*
X611800Y500000D02*
D03*
Y505000D02*
D03*
Y510000D02*
D03*
Y515000D02*
D03*
D21*
X595000Y531800D02*
D03*
X590000D02*
D03*
X585000D02*
D03*
X580000D02*
D03*
X575000Y531800D02*
D03*
X570000D02*
D03*
X565000Y531800D02*
D03*
X560000D02*
D03*
X555000D02*
D03*
X550000D02*
D03*
X545000D02*
D03*
X540000Y531800D02*
D03*
X535000D02*
D03*
X530000D02*
D03*
X525000Y531800D02*
D03*
X520000D02*
D03*
X515000D02*
D03*
X510000D02*
D03*
X505000D02*
D03*
X500000Y531800D02*
D03*
X495000D02*
D03*
X490000Y531800D02*
D03*
X485000D02*
D03*
X480000D02*
D03*
X475000D02*
D03*
Y378200D02*
D03*
X480000D02*
D03*
X485000D02*
D03*
X490000D02*
D03*
X495000Y378200D02*
D03*
X500000D02*
D03*
X505000Y378200D02*
D03*
X510000D02*
D03*
X515000D02*
D03*
X520000D02*
D03*
X525000D02*
D03*
X530000Y378200D02*
D03*
X535000D02*
D03*
X540000D02*
D03*
X545000Y378200D02*
D03*
X550000D02*
D03*
X555000D02*
D03*
X560000D02*
D03*
X565000D02*
D03*
X570000Y378200D02*
D03*
X575000D02*
D03*
X580000Y378200D02*
D03*
X585000D02*
D03*
X590000D02*
D03*
X595000D02*
D03*
D22*
X205000Y363000D02*
D03*
Y382000D02*
D03*
Y318000D02*
D03*
Y337000D02*
D03*
X742500Y508000D02*
D03*
Y527000D02*
D03*
X710000Y508000D02*
D03*
Y527000D02*
D03*
X940000Y455500D02*
D03*
Y436500D02*
D03*
X477500Y324500D02*
D03*
Y305500D02*
D03*
X585000Y324500D02*
D03*
Y305500D02*
D03*
X142500Y554500D02*
D03*
Y535500D02*
D03*
X575000Y600500D02*
D03*
Y619500D02*
D03*
X600000Y600500D02*
D03*
Y619500D02*
D03*
X435000Y596000D02*
D03*
Y577000D02*
D03*
X545000Y596500D02*
D03*
Y577500D02*
D03*
X455000Y596000D02*
D03*
Y577000D02*
D03*
D23*
X282750Y153450D02*
D03*
Y166150D02*
D03*
Y178850D02*
D03*
Y191550D02*
D03*
X332250D02*
D03*
Y178850D02*
D03*
Y166150D02*
D03*
Y153450D02*
D03*
X944750Y160950D02*
D03*
Y173650D02*
D03*
Y186350D02*
D03*
Y199050D02*
D03*
X895250D02*
D03*
Y186350D02*
D03*
Y173650D02*
D03*
Y160950D02*
D03*
X734750D02*
D03*
Y173650D02*
D03*
Y186350D02*
D03*
Y199050D02*
D03*
X685250D02*
D03*
Y186350D02*
D03*
Y173650D02*
D03*
Y160950D02*
D03*
X532250Y158450D02*
D03*
Y171150D02*
D03*
Y183850D02*
D03*
Y196550D02*
D03*
X482750D02*
D03*
Y183850D02*
D03*
Y171150D02*
D03*
Y158450D02*
D03*
X434500Y679600D02*
D03*
Y692300D02*
D03*
Y705000D02*
D03*
Y717700D02*
D03*
X385000D02*
D03*
Y705000D02*
D03*
Y692300D02*
D03*
Y679600D02*
D03*
X227250Y678450D02*
D03*
Y691150D02*
D03*
Y703850D02*
D03*
Y716550D02*
D03*
X177750D02*
D03*
Y703850D02*
D03*
Y691150D02*
D03*
Y678450D02*
D03*
X857250Y680950D02*
D03*
Y693650D02*
D03*
Y706350D02*
D03*
Y719050D02*
D03*
X807750D02*
D03*
Y706350D02*
D03*
Y693650D02*
D03*
Y680950D02*
D03*
X652250D02*
D03*
Y693650D02*
D03*
Y706350D02*
D03*
Y719050D02*
D03*
X602750D02*
D03*
Y706350D02*
D03*
Y693650D02*
D03*
Y680950D02*
D03*
D24*
X867000Y395000D02*
D03*
X888000D02*
D03*
D25*
X599500Y577500D02*
D03*
X575500D02*
D03*
D26*
X646000Y512500D02*
D03*
X665000D02*
D03*
X100500Y422500D02*
D03*
X119500D02*
D03*
X222000Y112500D02*
D03*
X203000D02*
D03*
D27*
X156250Y317000D02*
D03*
Y340000D02*
D03*
Y363000D02*
D03*
D28*
X93750Y340000D02*
D03*
D29*
X305000Y532500D02*
D03*
Y482500D02*
D03*
D30*
X204050Y152750D02*
D03*
X191350D02*
D03*
X178650D02*
D03*
X165950D02*
D03*
Y202250D02*
D03*
X178650D02*
D03*
X191350D02*
D03*
X204050D02*
D03*
D31*
X149950Y507000D02*
D03*
Y497500D02*
D03*
Y488000D02*
D03*
X125050D02*
D03*
Y497500D02*
D03*
Y507000D02*
D03*
D32*
X216000Y540250D02*
D03*
Y459750D02*
D03*
D33*
X82500Y512500D02*
D03*
Y480700D02*
D03*
D34*
X1009000Y463000D02*
D03*
X979000D02*
D03*
X1009000Y391000D02*
D03*
X979000D02*
D03*
M02*
