M48
;Layer_Color=9474304
;FILE_FORMAT=4:4
METRIC,LZ
;TYPE=PLATED
T1F00S00C0.3000
T2F00S00C1.1000
T3F00S00C1.3200
T4F00S00C1.4000
%
T01
X00925Y002175
X00911Y00352
X00916Y00426
X0089Y003675
X00895Y002225
X009Y001475
X00803619Y001385
X0072Y00102
X006875Y001475
X00685082Y0022347
X007125Y002225
X0071Y00337
X006025Y003375
X00595Y00359
X005825Y003475
X0057Y00355
X00555Y0036
X00564787Y00338893
X005425Y003395
X005175
X00515Y0043
X00525Y0044
X00596879Y0046
X005925Y0047
X005825Y00475
X00645Y004625
X0051Y00215
X0049Y0022
X0048Y001475
X00382Y00134
X00333Y00133
X00285Y001425
X00302Y00166
X003125Y002075
X002975Y00215
X00241Y00163
X00205Y001825
X00185Y00185
X001775Y001725
X001675Y001825
X00155Y001725
X001275Y002
X001675Y00265
X00185
X002125Y002625
X002225Y0033
X003525Y00325
X004975Y00338
X004775Y004025
X0049Y004175
X005025Y004225
X001675Y001275
X001775Y001
X00089Y00222
X001Y004025
X0011Y005075
Y005425
X00155Y006775
X00195Y00645
X00215Y006525
X0036Y0068
X00405Y0066
X0042Y006625
X004275Y0054
X004625Y005525
X004775Y0056
X005
X0049Y00515
X00375Y00555
X00518447Y00564053
X0055Y005525
X005665Y00553074
X0056Y005875
X006175Y006
X006275Y006625
X006425
X00579292Y00679555
X005875Y005125
X0059Y005025
X00585Y00495
X0057Y004925
X00575Y004825
X00671Y00482
X006925Y00505
X00725977Y00522332
X0077Y006775
X0083Y006625
X00845
T02
X01Y0025
Y002754
Y003008
Y003262
X007608Y004196
X007354Y004196
X0071
Y00445
X007354
X007608
X0004Y002754
Y0025
Y0055
Y005754
X00708Y005875
X00757
X01Y005754
Y0055
T03
X0005Y001325
X000755
X00101
T04
X000375Y0006
X00072552
X001425
X00177552
X00245
X00280052
X003475
X00382552
X0045
X00485052
X005525
X00587552
X00655
X00690052
X007575
X00792552
X0086
X00895052
X0096
X00995052
X00480052Y008225
X00445
X00375052
X0034
X00272552
X002375
X00170052
X00135
X005525
X00587552
X00655
X00690052
X007575
X00792552
X0086
X00895052
M30
